<?xml version="1.0" encoding="utf-8"?>
<!-- Generator: Adobe Illustrator 26.0.2, SVG Export Plug-In . SVG Version: 6.00 Build 0)  -->
<svg version="1.1" id="Layer_1" xmlns="http://www.w3.org/2000/svg" xmlns:xlink="http://www.w3.org/1999/xlink" x="0px" y="0px"
	 viewBox="0 0 500 110" style="enable-background:new 0 0 500 110;" xml:space="preserve">
<style type="text/css">
	.st0{fill:#fafafa;}
</style>
<g>
	<g>
		<path class="st0" d="M52.0178,41.8051c7.1272,24.8499,11.269,39.1053,12.0394,43.3429h0.0967
			c0.7703-3.8525,5.5866-18.974,13.099-43.3429h5.2014c8.9572,29.7629,11.6542,38.335,12.5213,42.0916h0.0967
			c1.3481-5.2982,3.5632-12.5221,12.4245-42.0916h5.1047L97.3833,89.9643H92.086c-5.2014-17.0482-11.4616-37.9489-12.4245-42.38
			h-0.0967c-0.9629,4.7195-6.4537,21.9603-12.7138,42.38h-5.7792L46.9131,41.8051H52.0178z"/>
		<path class="st0" d="M176.5203,59.1506h-33.0288v22.4085h36.3036l-1.2522,8.4052h-44.7611V23.0672h44.297v8.4052h-34.5872v19.2731
			h33.0288V59.1506z"/>
		<path class="st0" d="M200.5556,76.6728c1.6374,6.2602,6.0676,10.0168,13.6767,10.0168c8.572,0,12.0394-3.9492,12.0394-9.3432
			c0-5.4899-2.311-8.1869-13.099-10.7871c-12.4245-2.9863-15.5067-6.7421-15.5067-13.099c0-6.6462,5.008-12.8106,15.8918-12.8106
			c10.8839,0,16.0853,6.6462,16.8556,13.4842h-4.8154c-0.8671-4.0451-4.046-9.0539-12.2328-9.0539
			c-8.3794,0-10.7871,4.1418-10.7871,7.9952c0,4.4302,2.311,6.6453,11.8468,8.9572c13.5809,3.2748,16.9524,7.705,16.9524,14.929
			c0,8.7655-7.1281,14.1586-17.2417,14.1586c-10.9797,0-17.1441-5.7783-18.493-14.4471H200.5556z"/>
		<path class="st0" d="M257.002,18.9777v30.9184c2.697-5.0089,7.4165-9.2465,15.8927-9.2465
			c6.8379,0,16.2779,3.4673,16.2779,18.6856v30.6291h-4.8163V60.2981c0-9.5349-4.3344-14.9289-12.3287-14.9289
			c-9.5358,0-15.0257,5.875-15.0257,17.7227v26.8725h-4.8154V18.9777H257.002z"/>
		<path class="st0" d="M347.0664,80.8146c0,4.2376,0.3852,7.6082,0.6745,9.1498h-4.6237c-0.3852-1.1555-0.6745-3.2747-0.867-7.4165
			c-1.6374,3.5641-5.875,8.572-15.796,8.572c-11.1732,0-15.9886-7.2231-15.9886-14.4471c0-10.5955,8.1869-15.4108,22.6348-15.4108
			c4.0451,0,7.224,0,9.1498,0v-4.9121c0-4.8163-1.4448-11.2699-12.4245-11.2699c-9.7284,0-11.1732,5.1056-12.2328,9.0539h-4.8154
			c0.5778-5.2973,3.8525-13.4842,17.1441-13.4842c10.9806,0,17.1449,4.6228,17.1449,15.2183V80.8146z M342.3469,65.4037
			c-1.83,0-6.2611,0-9.4391,0c-10.6913,0-17.3376,2.7929-17.3376,11.0765c0,6.0676,4.3344,10.2094,11.0765,10.2094
			c13.7735,0,15.7002-9.1507,15.7002-19.5526V65.4037z"/>
		<path class="st0" d="M372.597,54.905c0-8.091-0.0967-11.5583-0.0967-13.0999h4.7195c0.0967,1.5415,0.1926,4.6237,0.1926,10.788
			c2.7938-7.224,8.9581-11.5584,16.7598-11.9435v5.2014c-10.0177,0.6736-16.7598,7.6091-16.7598,19.0708v25.0425h-4.8154V54.905z"/>
		<path class="st0" d="M413.7284,66.4625c0.0967,12.4254,6.3569,20.1304,15.6034,20.1304c9.0539,0,12.1361-5.1047,13.8702-9.0539
			h4.9121c-2.0225,6.3578-7.1272,13.5809-18.9749,13.5809c-14.6396,0-20.323-12.6171-20.323-24.8499
			c0-13.7735,6.8388-25.6202,20.9016-25.6202c14.8322,0,19.5518,12.8106,19.5518,21.8645c0,1.3481,0,2.6961-0.0959,3.9483H413.7284z
			 M444.2616,62.2248c-0.0967-9.5358-5.2973-17.0482-14.7364-17.0482c-9.921,0-14.4479,6.9347-15.5076,17.0482H444.2616z"/>
	</g>
	<path class="st0" d="M12.0784,61.9715l20.0887-10.7246v4.2046L16.299,63.7196l15.8681,8.5672v4.2005L12.0784,65.5568V61.9715z"/>
	<path class="st0" d="M487.2386,65.5568l-20.0887,10.9305v-4.2005l15.8681-8.5672l-15.8681-8.2681v-4.2046l20.0887,10.7246V65.5568z
		"/>
</g>
</svg>
